<svg width="16" height="16" viewBox="0 0 16 16" fill="none" xmlns="http://www.w3.org/2000/svg">
<path d="M12.6667 14.6673H3.33333C2.97971 14.6673 2.64057 14.5268 2.39052 14.2768C2.14048 14.0267 2 13.6876 2 13.334V4.00065C2 3.64703 2.14048 3.30789 2.39052 3.05784C2.64057 2.80779 2.97971 2.66732 3.33333 2.66732H4.66667V1.33398H6V2.66732H10V1.33398H11.3333V2.66732H12.6667C13.0203 2.66732 13.3594 2.80779 13.6095 3.05784C13.8595 3.30789 14 3.64703 14 4.00065V13.334C14 13.6876 13.8595 14.0267 13.6095 14.2768C13.3594 14.5268 13.0203 14.6673 12.6667 14.6673ZM3.33333 6.66732V13.334H12.6667V6.66732H3.33333ZM3.33333 4.00065V5.33398H12.6667V4.00065H3.33333ZM11.3333 12.0007H10V10.6673H11.3333V12.0007ZM8.66667 12.0007H7.33333V10.6673H8.66667V12.0007ZM6 12.0007H4.66667V10.6673H6V12.0007ZM11.3333 9.33398H10V8.00065H11.3333V9.33398ZM8.66667 9.33398H7.33333V8.00065H8.66667V9.33398ZM6 9.33398H4.66667V8.00065H6V9.33398Z" fill="#191B1D"/>
</svg>
