<svg width="176" height="188" viewBox="0 0 176 188" fill="none" xmlns="http://www.w3.org/2000/svg">
<path d="M3.16132 31.0682C1.84646 31.5371 1.02877 32.8509 1.18874 34.2377L13.9527 144.889C14.0637 145.851 14.6322 146.7 15.4794 147.169L86.1985 186.338C87.1028 186.839 88.2012 186.839 89.1055 186.338L159.825 147.169C160.672 146.7 161.24 145.851 161.351 144.889L174.115 34.2377C174.275 32.8509 173.458 31.5371 172.143 31.0682L88.6597 1.29766C88.008 1.06527 87.296 1.06526 86.6443 1.29766L3.16132 31.0682Z" fill="white" stroke="url(#paint0_linear_2849_44754)" stroke-width="2"/>
<path d="M2.67886 34.0658C2.59887 33.3724 3.00772 32.7155 3.66515 32.481L87.1482 2.71051C87.474 2.59431 87.83 2.59431 88.1558 2.71051L171.639 32.481C172.296 32.7155 172.705 33.3724 172.625 34.0658L159.861 144.717C159.806 145.198 159.521 145.622 159.098 145.857L88.3788 185.026C87.9266 185.276 87.3774 185.276 86.9252 185.026L16.2062 145.857C15.7826 145.622 15.4983 145.198 15.4428 144.717L2.67886 34.0658ZM34.9065 139.374C34.1691 141.027 35.3792 142.892 37.1897 142.892H52.7187C53.7404 142.892 54.6593 142.27 55.0393 141.322L64.7967 116.97C65.0247 116.401 65.5761 116.028 66.1891 116.028H108.931C109.544 116.028 110.095 116.401 110.323 116.97L120.08 141.322C120.46 142.27 121.379 142.892 122.401 142.892H137.934C139.744 142.892 140.954 141.03 140.219 139.377L89.9333 26.2341C89.0541 24.2559 86.2472 24.2541 85.3655 26.2311L34.9065 139.374ZM86.2668 65.9752C86.779 64.7428 88.5248 64.7428 89.037 65.9752L101.68 96.3923C102.09 97.3802 101.365 98.468 100.295 98.468H75.0091C73.9393 98.468 73.2134 97.3802 73.624 96.3923L86.2668 65.9752Z" fill="url(#paint1_linear_2849_44754)" stroke="url(#paint2_linear_2849_44754)"/>
<defs>
<linearGradient id="paint0_linear_2849_44754" x1="87.652" y1="2" x2="87.652" y2="186" gradientUnits="userSpaceOnUse">
<stop stop-color="white"/>
<stop offset="1" stop-color="white" stop-opacity="0"/>
</linearGradient>
<linearGradient id="paint1_linear_2849_44754" x1="2" y1="186" x2="173.418" y2="2.10645" gradientUnits="userSpaceOnUse">
<stop stop-color="#CC002D"/>
<stop offset="0.520833" stop-color="#FF2652"/>
<stop offset="1" stop-color="#FF6385"/>
</linearGradient>
<linearGradient id="paint2_linear_2849_44754" x1="87.652" y1="2" x2="87.652" y2="186" gradientUnits="userSpaceOnUse">
<stop stop-color="white"/>
<stop offset="1" stop-color="white" stop-opacity="0"/>
</linearGradient>
</defs>
</svg>
