<svg width="184" height="184" viewBox="0 0 184 184" fill="none" xmlns="http://www.w3.org/2000/svg">
<rect x="0.5" y="0.5" width="183" height="183" rx="1.5" fill="white" stroke="url(#paint0_linear_2849_44564)"/>
<path d="M61.119 56.5937C48.5526 62.8531 41.3418 76.0185 41.3418 92.505C41.3418 109.029 48.4375 121.815 61.054 127.802L61.2683 127.35L61.054 127.802C64.4692 129.422 67.8854 130.298 73.0188 130.908L73.0382 130.911L73.0578 130.911C73.4573 130.927 73.8529 130.945 74.2471 130.963L74.2657 130.964C76.3946 131.061 78.4802 131.156 80.6427 130.909L80.645 130.908C85.7784 130.298 89.1947 129.422 92.6098 127.802C105.227 121.815 112.323 109.03 112.323 92.505C112.323 76.0185 105.111 62.8531 92.5459 56.5937C87.6313 54.1453 82.63 53.0089 76.8385 52.9323L76.8385 52.9321L76.8253 52.9323C71.0349 53.0089 66.0326 54.1453 61.119 56.5937ZM61.119 56.5937L61.3419 57.0412L61.119 56.5937ZM96.1341 83.4967L96.1341 83.4969C97.5678 90.2755 97.1743 98.112 95.1289 104.267C91.951 113.828 85.1014 119.136 76.8371 119.051L76.8267 119.051C68.5625 119.136 61.7129 113.828 58.536 104.267C56.4926 98.1119 56.0981 90.2754 57.5298 83.4968C59.5672 73.852 64.8516 67.355 72.0281 65.437C75.3046 64.7448 78.5784 64.8669 81.6424 65.4385C88.816 67.3584 94.0982 73.8545 96.1341 83.4967ZM140.503 130.857L140.503 130.857C151.48 129.622 158.869 125.113 162.504 117.247L162.05 117.037L162.504 117.247C163.242 115.649 163.719 114.345 164.005 112.912C164.291 111.483 164.383 109.947 164.378 107.891L164.378 107.889C164.346 102.89 162.981 97.8029 158.643 93.4703C155.532 90.3129 151.91 88.2091 144.502 85.196L144.501 85.1959C139.482 83.1567 136.351 81.6377 134.365 80.1186C132.419 78.6296 131.582 77.1478 131.165 75.1308C130.586 71.9449 131.927 69.4564 134.222 67.7428C136.537 66.0137 139.811 65.0925 142.973 65.1323L142.976 65.1323C147.018 65.1579 151.749 66.2436 156.153 67.8417C156.707 68.0428 157.282 68.0341 157.775 67.7994C158.271 67.5632 158.639 67.1196 158.81 66.5413C159.238 65.0891 159.872 62.8718 160.398 60.9897C160.661 60.0487 160.898 59.1899 161.069 58.5518C161.155 58.233 161.224 57.9672 161.273 57.7729C161.297 57.6762 161.317 57.594 161.331 57.5306C161.338 57.4992 161.344 57.4685 161.349 57.4412C161.351 57.4267 161.361 57.3731 161.361 57.3159C161.361 57.119 161.276 56.9621 161.2 56.8584C161.121 56.7515 161.021 56.6587 160.92 56.5791C160.717 56.4195 160.443 56.2608 160.129 56.1054C159.496 55.7921 158.616 55.4518 157.598 55.1161C155.559 54.4434 152.906 53.7695 150.432 53.3558C148.693 53.065 146.085 52.9242 143.52 52.9263C140.956 52.9284 138.388 53.0733 136.73 53.3681C125.428 55.3784 117.957 61.9892 116.402 71.5712L116.402 71.5713C115.845 75.0086 116.253 78.938 117.498 82.0415L117.498 82.0417C120.038 88.366 126.212 93.1501 136.521 97.0032C141.11 98.7187 144.181 100.252 146.195 101.928C148.182 103.582 149.146 105.379 149.503 107.679C150.135 111.757 148.272 115.279 144.428 117.205C141.086 118.739 136.942 118.782 132.629 118.094C128.321 117.408 123.913 116.004 120.083 114.715C119.544 114.533 118.992 114.557 118.524 114.797C118.053 115.039 117.714 115.476 117.559 116.03C116.799 118.755 115.286 124.435 115.027 125.582C114.991 125.743 114.998 125.924 115.085 126.095C115.168 126.259 115.299 126.365 115.419 126.432C119.9 128.92 125.076 129.793 130.376 130.687L130.423 130.695C130.912 130.777 131.403 130.86 131.895 130.944C131.912 130.947 131.93 130.949 131.947 130.951C133.645 131.14 138.448 131.086 140.503 130.857ZM182 0.5C182.828 0.5 183.5 1.17157 183.5 2V182C183.5 182.828 182.828 183.5 182 183.5H2C1.17157 183.5 0.5 182.828 0.5 182V2C0.5 1.17157 1.17157 0.5 2 0.5H182ZM27.5458 52.9323C25.9793 52.9323 24.4481 53.3968 23.1456 54.267C21.8432 55.1373 20.828 56.3743 20.2286 57.8215C19.6291 59.2687 19.4723 60.8611 19.7779 62.3975C20.0835 63.9338 20.8378 65.345 21.9455 66.4527C23.0531 67.5603 24.4643 68.3146 26.0007 68.6202C27.537 68.9258 29.1295 68.769 30.5767 68.1695C32.0239 67.5701 33.2608 66.5549 34.1311 65.2525C35.0014 63.95 35.4659 62.4188 35.4659 60.8523C35.4659 58.7518 34.6314 56.7373 33.1461 55.252C31.6608 53.7667 29.6463 52.9323 27.5458 52.9323ZM20.1129 128.566C20.1129 129.947 21.2321 131.066 22.6129 131.066H32.4787C33.8594 131.066 34.9787 129.947 34.9787 128.566V78.0718C34.9787 76.6911 33.8594 75.5718 32.4787 75.5718H22.6129C21.2321 75.5718 20.1129 76.6911 20.1129 78.0718V128.566Z" fill="url(#paint1_linear_2849_44564)" stroke="url(#paint2_linear_2849_44564)"/>
<defs>
<linearGradient id="paint0_linear_2849_44564" x1="92" y1="0" x2="92" y2="184" gradientUnits="userSpaceOnUse">
<stop stop-color="white" stop-opacity="0.9"/>
<stop offset="1" stop-color="white" stop-opacity="0.15"/>
</linearGradient>
<linearGradient id="paint1_linear_2849_44564" x1="0" y1="184" x2="184" y2="0" gradientUnits="userSpaceOnUse">
<stop stop-color="#111111"/>
<stop offset="0.380208" stop-color="#313131"/>
<stop offset="0.671875" stop-color="#505050"/>
<stop offset="1" stop-color="#121212"/>
</linearGradient>
<linearGradient id="paint2_linear_2849_44564" x1="92" y1="0" x2="92" y2="184" gradientUnits="userSpaceOnUse">
<stop stop-color="white" stop-opacity="0.9"/>
<stop offset="1" stop-color="white" stop-opacity="0.15"/>
</linearGradient>
</defs>
</svg>
