<svg width="165" height="188" viewBox="0 0 165 188" fill="none" xmlns="http://www.w3.org/2000/svg">
<path d="M14.275 164.279C14.4455 166.362 15.8935 168.119 17.9056 168.685L81.8429 186.654C82.7405 186.906 83.6908 186.902 84.5864 186.643L146.577 168.693C148.562 168.119 149.989 166.382 150.167 164.323L163.828 6.75441C164.081 3.8376 161.784 1.32859 158.857 1.32257L6.35168 1.00895C3.42538 1.00293 1.1194 3.50012 1.35805 6.41669L14.275 164.279Z" fill="url(#paint0_linear_2849_44561)" stroke="url(#paint1_linear_2849_44561)" stroke-width="2"/>
<path d="M75.8777 33.3193C75.8777 32.2382 75.0013 31.3618 73.9203 31.3618H60.2843C59.2033 31.3618 58.3269 32.2382 58.3269 33.3193V130.401C58.3269 131.629 57.2094 132.554 56.0032 132.324L46.2675 130.469C45.3442 130.294 44.6763 129.486 44.6763 128.547V118.185C44.6763 117.223 43.9777 116.404 43.0281 116.252L30.6922 114.278C29.5029 114.088 28.4255 115.007 28.4255 116.211V142.954C28.4255 143.845 29.0275 144.624 29.8899 144.848L73.4272 156.18C74.6672 156.502 75.8777 155.567 75.8777 154.285V33.3193ZM89.0434 33.3193C89.0434 32.2382 89.9198 31.3618 91.0008 31.3618H135.319C136.529 31.3618 137.449 32.4487 137.249 33.6421L134.654 49.1631C134.496 50.1065 133.68 50.7977 132.723 50.7977H109.549C108.468 50.7977 107.591 51.6741 107.591 52.7551V80.7346C107.591 81.8157 108.468 82.6921 109.549 82.6921H132.322C133.441 82.6921 134.333 83.6298 134.277 84.7482L131.205 145.592C131.161 146.465 130.543 147.203 129.692 147.4L91.4426 156.262C90.2156 156.546 89.0434 155.614 89.0434 154.355V138.065C89.0434 137.228 89.5748 136.484 90.3659 136.213L116.241 127.341C116.991 127.084 117.511 126.4 117.56 125.61L118.974 102.668C119.05 101.428 117.968 100.432 116.739 100.61L91.2813 104.296C90.101 104.467 89.0434 103.552 89.0434 102.359V33.3193Z" fill="white"/>
<defs>
<linearGradient id="paint0_linear_2849_44561" x1="-184.936" y1="396.915" x2="188.936" y2="-29.8085" gradientUnits="userSpaceOnUse">
<stop stop-color="#FFE400"/>
<stop offset="0.510417" stop-color="#FFB800"/>
<stop offset="1" stop-color="#FFE856"/>
</linearGradient>
<linearGradient id="paint1_linear_2849_44561" x1="42" y1="195" x2="163" y2="2" gradientUnits="userSpaceOnUse">
<stop stop-color="white" stop-opacity="0.85"/>
<stop offset="1" stop-color="white" stop-opacity="0.35"/>
</linearGradient>
</defs>
</svg>
