<svg width="196" height="184" viewBox="0 0 196 184" fill="none" xmlns="http://www.w3.org/2000/svg">
<path d="M94.3556 2.95601C96.4405 1.82251 98.9577 1.8225 101.043 2.95601L177.653 44.6066C179.906 45.8318 181.309 48.1914 181.309 50.7565V133.243C181.309 135.809 179.906 138.168 177.653 139.393L101.043 181.044C98.9577 182.177 96.4405 182.177 94.3556 181.044L17.7457 139.393C15.4922 138.168 14.0892 135.809 14.0892 133.243V50.7565C14.0892 48.1914 15.4921 45.8318 17.7457 44.6066L94.3556 2.95601Z" fill="url(#paint0_linear_2804_315190)" stroke="url(#paint1_linear_2804_315190)" stroke-width="2"/>
<path d="M104.127 13.0468C100.018 10.7475 94.661 10.7578 90.548 13.0468C85.4768 15.8311 80.4056 18.6156 75.3344 21.4001C59.8066 29.9263 44.2782 38.4526 28.7479 46.9741C24.739 49.0724 22.035 53.3556 22.0781 57.8013V126.136C22.0492 130.668 24.8926 134.993 29.0049 137.062C31.2374 138.244 33.446 139.471 35.6545 140.698C39.2999 142.723 42.9448 144.748 46.6966 146.568C53.6558 149.97 62.3626 150.723 69.4069 147.175C75.1249 144.234 77.6646 137.694 77.6575 131.684C77.6866 117.44 77.6818 103.197 77.6769 88.9531C77.6741 80.6442 77.6713 72.3353 77.6752 64.0266C77.8111 63.0242 77.0549 61.953 75.9561 61.9771C73.3236 61.9358 70.6876 61.953 68.0552 61.9702C67.0603 61.8766 66.0897 62.6986 66.1647 63.6934C66.1462 75.43 66.149 87.1684 66.1518 98.9073C66.1544 109.58 66.157 120.252 66.1435 130.924C66.2008 134.024 64.0959 137.004 61.093 138.051C57.6902 139.289 53.898 138.329 50.8095 136.712C48.9537 135.693 47.0975 134.676 45.2413 133.658C41.614 131.669 37.9867 129.68 34.3626 127.682C33.9993 127.515 33.6976 127.243 33.498 126.904C33.2983 126.565 33.2104 126.174 33.246 125.785C33.246 118.27 33.2464 110.754 33.2468 103.239C33.2476 88.2091 33.2484 73.1795 33.246 58.1517C33.1462 57.243 33.7092 56.4245 34.5481 56.0535C45.9727 49.7971 57.3941 43.5321 68.8158 37.2669C77.9197 32.273 87.0239 27.279 96.1302 22.2892C96.4866 22.0525 96.9084 21.9261 97.3401 21.9267C97.7717 21.9273 98.1931 22.0549 98.5488 22.2927C107.617 27.2599 116.683 32.2299 125.75 37.2C137.211 43.4829 148.673 49.766 160.138 56.0437C160.98 56.4142 161.519 57.2465 161.433 58.1517C161.432 66.3492 161.432 74.5473 161.433 82.7455C161.434 97.091 161.435 111.437 161.426 125.781C161.487 126.579 161.073 127.352 160.324 127.703C149.747 133.517 139.163 139.319 128.579 145.122C118.931 150.411 109.283 155.7 99.64 160.999C99.5156 161.066 99.3883 161.139 99.2585 161.213C98.3791 161.715 97.3831 162.284 96.3978 161.73C93.3617 160.06 90.3467 158.352 87.3319 156.644C85.0837 155.37 82.8355 154.096 80.5789 152.838C80.0046 152.482 79.2733 152.329 78.6742 152.728C78.5307 152.803 78.3873 152.878 78.2437 152.953C76.0176 154.123 73.7807 155.297 71.3582 156.046C71.0501 156.168 70.7229 156.266 70.3938 156.364C69.4999 156.632 68.5922 156.904 68.0162 157.659C68.7215 158.6 69.7597 159.162 70.7878 159.717C71.0591 159.864 71.3297 160.01 71.5933 160.163C74.4087 161.748 77.2262 163.33 80.0439 164.913C83.4093 166.803 86.775 168.693 90.1375 170.588C94.2043 173.113 99.6689 173.293 103.867 170.959C113.632 165.606 123.395 160.249 133.158 154.892C143.995 148.947 154.831 143.001 165.671 137.059C169.772 134.978 172.63 130.671 172.601 126.135V57.8013C172.64 53.4458 170.04 49.2389 166.152 47.1097C154.046 40.4536 141.937 33.8061 129.827 27.1584C121.26 22.4556 112.693 17.7527 104.127 13.0468Z" fill="white"/>
<path d="M135.212 64.3528C127.126 60.0489 117.507 59.8197 108.521 60.3821C102.03 61.0202 95.2023 62.8025 90.4726 67.4321C85.6219 72.0864 84.5662 79.6017 86.8702 85.6775C88.5213 89.9705 92.6774 92.7626 96.9752 94.2393C102.512 96.1838 108.327 96.785 114.143 97.3865C119.449 97.9351 124.756 98.4838 129.855 100.052C131.938 100.739 134.364 101.79 135.002 104.044C135.591 106.714 134.945 109.818 132.766 111.674C128.849 114.758 123.538 114.977 118.684 115.178C118.418 115.189 118.154 115.2 117.891 115.211C117.378 115.203 116.861 115.197 116.341 115.192C110.667 115.13 104.638 115.065 99.7506 111.999C96.9859 110.172 95.7943 106.936 95.3099 103.853C95.2561 102.893 94.4786 102.011 93.43 102.084C90.8047 102.053 88.1793 102.06 85.5539 102.081C84.6376 102.004 83.6853 102.653 83.6351 103.583C83.4248 109.09 85.5433 114.795 89.8807 118.457C94.953 122.809 101.791 124.488 108.361 125.216C115.349 125.878 122.489 125.84 129.37 124.349C134.542 123.177 139.728 121.02 143.288 117.056C147.679 112.239 148.542 105.067 146.573 99.0671C145.068 94.5903 140.766 91.7184 136.368 90.241C130.388 88.2009 124.138 87.3961 117.884 86.591C113.03 85.9661 108.175 85.3409 103.442 84.1376C103.362 84.113 103.281 84.0883 103.199 84.0635C101.369 83.5063 99.2293 82.855 98.4273 81.0026C97.5388 78.3075 98.295 74.9612 100.784 73.3035C104.027 71.1151 108.143 70.7928 111.971 70.5952C112.108 70.594 112.245 70.5927 112.382 70.5913C117.504 70.542 122.914 70.4898 127.597 72.7693C130.729 74.3299 132.544 77.5344 133.293 80.77C133.432 81.7206 134.075 82.712 135.181 82.6706C136.965 82.706 138.749 82.6994 140.533 82.6928C141.356 82.6898 142.179 82.6867 143.002 82.6878C143.898 82.7504 144.879 82.2473 145.054 81.3352C144.943 74.5729 141.472 67.6509 135.212 64.3528Z" fill="white"/>
<defs>
<linearGradient id="paint0_linear_2804_315190" x1="43.9646" y1="168.531" x2="170.973" y2="-13.8407" gradientUnits="userSpaceOnUse">
<stop stop-color="#6DC012"/>
<stop offset="0.355915" stop-color="#AAD336"/>
<stop offset="0.619388" stop-color="#C7E845"/>
<stop offset="1" stop-color="#74C71B"/>
</linearGradient>
<linearGradient id="paint1_linear_2804_315190" x1="97.6991" y1="0" x2="97.6991" y2="184" gradientUnits="userSpaceOnUse">
<stop stop-color="white"/>
<stop offset="1" stop-color="white" stop-opacity="0.35"/>
</linearGradient>
</defs>
</svg>
