<svg width="206" height="184" viewBox="0 0 206 184" fill="none" xmlns="http://www.w3.org/2000/svg">
<path d="M102.655 22.3806L103 22.7115L103.346 22.3806C106.048 19.7946 108.739 17.4117 111.402 15.2476C119.004 9.06899 126.597 4.49065 133.729 2.18343C140.861 -0.123771 148.102 -0.316819 154.25 3.23288C160.398 6.78259 163.851 13.1497 165.419 20.4797C166.987 27.8096 166.819 36.6748 165.269 46.3478C164.726 49.7358 164.008 53.2581 163.119 56.8911L163.006 57.3559L163.465 57.4899C167.055 58.5367 170.464 59.6759 173.67 60.8998C182.822 64.3941 190.583 68.6809 196.147 73.7037C201.711 78.7264 205.499 84.9005 205.499 91.9999C205.499 99.0993 201.711 105.273 196.147 110.296C190.583 115.319 182.822 119.606 173.67 123.1C170.465 124.324 167.056 125.463 163.465 126.51L163.006 126.644L163.12 127.109C164.008 130.742 164.726 134.264 165.269 137.652C166.819 147.325 166.987 156.19 165.42 163.52C163.852 170.85 160.399 177.217 154.25 180.767C148.102 184.317 140.861 184.124 133.73 181.817C126.598 179.509 119.004 174.931 111.402 168.752C108.739 166.588 106.048 164.205 103.346 161.619L103 161.288L102.655 161.619C99.9527 164.205 97.2613 166.588 94.5985 168.752C86.9963 174.931 79.4031 179.509 72.2712 181.817C65.1394 184.124 57.8987 184.317 51.7504 180.767C45.6022 177.217 42.149 170.85 40.5812 163.52C39.0134 156.19 39.1817 147.325 40.7315 137.652C41.2743 134.264 41.9924 130.742 42.881 127.109L42.9948 126.644L42.5353 126.51C38.9445 125.463 35.5349 124.324 32.3291 123.1C23.1771 119.606 15.4156 115.319 9.85153 110.296C4.28752 105.273 0.5 99.0993 0.5 91.9999C0.5 84.9005 4.28752 78.7264 9.85153 73.7037C15.4156 68.6809 23.1771 64.3941 32.3291 60.8998C35.535 59.6757 38.9447 58.5363 42.5356 57.4894L42.995 57.3555L42.8813 56.8906C41.9927 53.2578 41.2747 49.7357 40.7319 46.3477C39.1821 36.6747 39.0138 27.8096 40.5816 20.4796C42.1494 13.1497 45.6026 6.78253 51.7508 3.23283C57.8991 -0.316873 65.1398 -0.123826 72.2716 2.18338C79.4034 4.49059 86.9967 9.06894 94.5989 15.2476C97.2616 17.4117 99.9529 19.7946 102.655 22.3806Z" fill="url(#paint0_linear_2804_315185)" stroke="#03DDEA"/>
<path fill-rule="evenodd" clip-rule="evenodd" d="M57.1597 12.6013C59.734 11.115 63.5249 10.7235 68.9419 12.4759C74.358 14.2281 80.7737 17.9513 87.7761 23.6424C90.1833 25.5989 92.6316 27.7648 95.1027 30.1266C89.6253 36.1307 84.1819 42.8975 78.9217 50.2944C69.8858 51.1514 61.3039 52.4821 53.3656 54.2235C52.5557 50.9026 51.9042 47.6994 51.4134 44.6364C49.9859 35.7266 49.9694 28.3089 51.1601 22.7423C52.3509 17.1748 54.5854 14.0876 57.1597 12.6013ZM94.9142 14.8596C97.5883 17.0329 100.29 19.4249 103 22.0194C105.711 19.4249 108.412 17.0329 111.087 14.8596C118.716 8.65844 126.364 4.04057 133.575 1.70771C140.786 -0.624904 148.186 -0.845476 154.5 2.79987C160.814 6.44522 164.323 12.9644 165.908 20.3751C167.493 27.7865 167.318 36.7186 165.763 46.4269C165.217 49.8294 164.497 53.365 163.605 57.0099C167.207 58.0601 170.629 59.2036 173.848 60.4327C183.034 63.9398 190.857 68.2539 196.482 73.3325C202.108 78.4106 205.999 84.7092 205.999 91.9999C205.999 99.2906 202.108 105.589 196.482 110.667C190.857 115.746 183.034 120.06 173.848 123.567C170.629 124.796 167.207 125.94 163.605 126.99C164.497 130.635 165.218 134.17 165.763 137.573C167.318 147.281 167.494 156.213 165.908 163.625C164.323 171.036 160.814 177.555 154.5 181.2C148.186 184.845 140.786 184.625 133.576 182.292C126.365 179.959 118.717 175.342 111.087 169.14C108.413 166.967 105.711 164.575 103 161.98C100.29 164.575 97.588 166.967 94.9138 169.14C87.2839 175.342 79.6362 179.959 72.4251 182.292C65.2147 184.625 57.8144 184.846 51.5004 181.2C45.1865 177.555 41.6773 171.036 40.0923 163.625C38.507 156.214 38.6824 147.282 40.2378 137.573C40.7829 134.171 41.5037 130.635 42.3954 126.99C38.7927 125.94 35.3702 124.796 32.1507 123.567C22.9654 120.06 15.1424 115.746 9.51649 110.667C3.89121 105.589 0 99.2906 0 91.9999C0 84.7092 3.89121 78.4106 9.51649 73.3325C15.1424 68.2539 22.9654 63.9398 32.1507 60.4327C35.3703 59.2034 38.7929 58.0597 42.3956 57.0094C41.5041 53.3647 40.7833 49.8292 40.2382 46.4268C38.6828 36.7185 38.5074 27.7865 40.0926 20.375C41.6777 12.9644 45.1869 6.44516 51.5008 2.79982C57.8148 -0.845531 65.2151 -0.624959 72.4255 1.70765C79.6366 4.04052 87.2843 8.65839 94.9142 14.8596ZM93.7311 49.3373C96.8035 45.3845 99.9047 41.685 103 38.2644C106.096 41.6851 109.197 45.3846 112.27 49.3374C109.214 49.2296 106.122 49.1746 102.999 49.1746C99.8775 49.1746 96.7859 49.2296 93.7311 49.3373ZM56.4643 65.132C60.9744 64.1614 65.7288 63.3254 70.6881 62.6412C69.0671 65.2331 67.4736 67.8834 65.9124 70.5874C64.3513 73.2912 62.8531 75.9961 61.419 78.6957C59.5319 74.0586 57.8787 69.5232 56.4643 65.132ZM75.7139 76.2463C72.6612 81.5336 69.8722 86.8028 67.3531 91.9996C69.8723 97.1966 72.6615 102.466 75.7143 107.754C78.767 113.041 81.9359 118.091 85.1769 122.871C90.9368 123.288 96.8944 123.507 102.999 123.507C109.105 123.507 115.063 123.288 120.824 122.871C124.065 118.091 127.234 113.041 130.286 107.754C133.339 102.466 136.128 97.1966 138.648 91.9996C136.129 86.8028 133.34 81.5335 130.287 76.2462C127.234 70.9588 124.065 65.9087 120.824 61.1285C115.064 60.7117 109.105 60.4924 102.999 60.4924C96.8943 60.4924 90.9367 60.7117 85.1766 61.1283C81.9356 65.9086 78.7666 70.9587 75.7139 76.2463ZM45.4678 67.9026C47.9288 75.6482 51.0673 83.7457 54.8431 91.9996C51.0672 100.254 47.9286 108.351 45.4675 116.097C42.1862 115.138 39.0861 114.101 36.1878 112.994C27.758 109.775 21.3258 106.081 17.1003 102.266C12.8742 98.4512 11.3178 94.9724 11.3178 91.9999C11.3178 89.0274 12.8742 85.5486 17.1003 81.7336C21.3258 77.9191 27.758 74.2246 36.1878 71.0059C39.0862 69.8993 42.1864 68.8619 45.4678 67.9026ZM61.419 105.304C59.5318 109.941 57.8785 114.476 56.464 118.868C60.9743 119.838 65.7288 120.674 70.6884 121.359C69.0674 118.767 67.4739 116.117 65.9128 113.413C64.3516 110.709 62.8532 108.003 61.419 105.304ZM51.413 139.364C51.9038 136.301 52.5554 133.097 53.3653 129.776C61.3038 131.518 69.8859 132.848 78.922 133.705C84.1821 141.102 89.6254 147.869 95.1027 153.873C92.6315 156.235 90.1831 158.401 87.7757 160.358C80.7733 166.049 74.3576 169.772 68.9415 171.524C63.5245 173.276 59.7336 172.885 57.1593 171.399C54.585 169.912 52.3505 166.825 51.1597 161.258C49.969 155.691 49.9855 148.273 51.413 139.364ZM118.225 160.358C115.818 158.401 113.369 156.235 110.898 153.873C116.375 147.869 121.819 141.102 127.079 133.705C136.115 132.848 144.697 131.517 152.635 129.776C153.445 133.097 154.097 136.3 154.588 139.364C156.015 148.273 156.032 155.691 154.841 161.258C153.65 166.825 151.416 169.912 148.841 171.399C146.267 172.885 142.476 173.276 137.059 171.524C131.643 169.772 125.227 166.049 118.225 160.358ZM103 145.735C106.096 142.315 109.197 138.615 112.269 134.662C109.214 134.77 106.122 134.825 102.999 134.825C99.8776 134.825 96.786 134.77 93.7313 134.662C96.8036 138.615 99.9048 142.315 103 145.735ZM149.537 118.867C145.026 119.838 140.272 120.674 135.313 121.358C136.933 118.767 138.527 116.117 140.088 113.413C141.649 110.709 143.148 108.003 144.582 105.303C146.469 109.941 148.122 114.476 149.537 118.867ZM160.533 116.097C158.072 108.351 154.933 100.253 151.158 91.9995C154.933 83.7458 158.072 75.6485 160.533 67.9031C163.814 68.8622 166.913 69.8995 169.811 71.0059C178.241 74.2246 184.673 77.9191 188.899 81.7336C193.125 85.5486 194.681 89.0274 194.681 91.9999C194.681 94.9724 193.125 98.4512 188.899 102.266C184.673 106.081 178.241 109.775 169.811 112.994C166.913 114.1 163.814 115.138 160.533 116.097ZM127.079 50.2946C136.115 51.1516 144.697 52.4823 152.635 54.2238C153.445 50.9028 154.097 47.6995 154.587 44.6364C156.015 35.7266 156.031 28.3089 154.841 22.7423C153.65 17.1749 151.415 14.0876 148.841 12.6013C146.267 11.1151 142.476 10.7236 137.059 12.476C131.643 14.2282 125.227 17.9513 118.225 23.6424C115.817 25.5989 113.369 27.7648 110.898 30.1266C116.376 36.1307 121.819 42.8976 127.079 50.2946ZM144.582 78.6956C146.469 74.0587 148.122 69.5234 149.536 65.1324C145.026 64.1618 140.272 63.3258 135.313 62.6415C136.934 65.2333 138.527 67.8834 140.088 70.5873C141.649 73.2911 143.148 75.9961 144.582 78.6956ZM121.139 91.9999C121.139 102.019 113.017 110.141 102.998 110.141C92.9794 110.141 84.8575 102.019 84.8575 91.9999C84.8575 81.981 92.9794 73.8591 102.998 73.8591C113.017 73.8591 121.139 81.981 121.139 91.9999Z" fill="white"/>
<mask id="path-3-inside-1_2804_315185" fill="white">
<path fill-rule="evenodd" clip-rule="evenodd" d="M96.4999 30.0788L95.8414 30.8006C90.3935 36.7724 84.9752 43.5074 79.7366 50.874L79.4715 51.2468L79.0161 51.29C70.0173 52.1434 61.4756 53.4682 53.5799 55.2003L52.6255 55.4096L52.3941 54.4604C51.5784 51.1158 50.9214 47.8863 50.426 44.7946C48.9872 35.8143 48.9567 28.2627 50.1822 22.5331C51.4084 16.8002 53.7566 13.4114 56.6597 11.7353C59.5628 10.0592 63.6717 9.71999 69.2497 11.5245C74.8244 13.328 81.349 17.1302 88.4068 22.8664C90.8366 24.8412 93.3049 27.0251 95.7936 29.4037L96.4999 30.0788ZM103 23.4037L102.309 22.7418C99.6161 20.1643 96.9349 17.7904 94.2835 15.6356C86.7091 9.47949 79.1702 4.94067 72.1177 2.6591C65.0644 0.377306 57.9834 0.211784 52.0008 3.66584C46.0182 7.1199 42.6211 13.335 41.0705 20.5842C39.5201 27.8327 39.6815 36.6309 41.2256 46.2686C41.7661 49.6421 42.4813 53.151 43.367 56.7718L43.5944 57.7015L42.6755 57.9694C39.0965 59.0129 35.6996 60.148 32.5075 61.3669C23.3889 64.8485 15.6887 69.1079 10.1866 74.0748C4.68383 79.0423 1 85.0918 1 91.9999C1 98.908 4.68383 104.958 10.1866 109.925C15.6887 114.892 23.3889 119.151 32.5075 122.633C35.6995 123.852 39.0963 124.987 42.6753 126.03L43.5942 126.298L43.3667 127.228C42.481 130.849 41.7657 134.358 41.2252 137.731C39.6811 147.369 39.5198 156.167 41.0701 163.416C42.6207 170.665 46.0178 176.88 52.0004 180.334C57.983 183.788 65.064 183.623 72.1173 181.341C79.1699 179.059 86.7087 174.521 94.2831 168.364C96.9346 166.209 99.6159 163.835 102.309 161.258L103 160.596L103.692 161.258C106.385 163.835 109.066 166.209 111.718 168.364C119.292 174.52 126.831 179.059 133.883 181.341C140.937 183.623 148.018 183.788 154 180.334C159.983 176.88 163.38 170.665 164.931 163.416C166.481 156.167 166.32 147.369 164.776 137.731C164.235 134.358 163.52 130.848 162.634 127.227L162.407 126.298L163.325 126.03C166.904 124.986 170.3 123.852 173.491 122.633C182.61 119.151 190.31 114.892 195.812 109.925C201.315 104.958 204.999 98.908 204.999 91.9999C204.999 85.0918 201.315 79.0423 195.812 74.0748C190.31 69.1079 182.61 64.8485 173.491 61.3669C170.3 60.1482 166.903 59.0132 163.325 57.9699L162.406 57.702L162.634 56.7723C163.519 53.1513 164.235 49.6423 164.775 46.2687C166.319 36.6309 166.481 27.8327 164.93 20.5842C163.38 13.335 159.983 7.11995 154 3.6659C148.017 0.211838 140.936 0.377362 133.883 2.65916C126.83 4.94072 119.292 9.47954 111.717 15.6356C109.066 17.7905 106.385 20.1644 103.692 22.7418L103 23.4037ZM103 36.7742L103.742 37.5934C106.855 41.0335 109.972 44.7523 113.059 48.7238L114.372 50.4122L112.234 50.3368C109.191 50.2294 106.11 50.1746 102.999 50.1746C99.8892 50.1746 96.8094 50.2294 93.7664 50.3367L91.6292 50.4121L92.9415 48.7237C96.0284 44.7522 99.1457 41.0335 102.259 37.5934L103 36.7742ZM72.6699 61.3582L71.536 63.1714C69.9212 65.7534 68.3337 68.3935 66.7784 71.0874C65.2232 73.781 63.7307 76.4757 62.3021 79.1648L61.2988 81.0534L60.4927 79.0726C58.5968 74.4137 56.935 69.8548 55.5124 65.4386L55.1736 64.3868L56.2539 64.1544C60.7897 63.1783 65.5687 62.338 70.5514 61.6505L72.6699 61.3582ZM66.2418 91.9996L66.4532 91.5634C68.983 86.3448 71.7833 81.0542 74.8478 75.7463C77.9125 70.4381 81.0942 65.3675 84.349 60.5672L84.621 60.1659L85.1045 60.131C90.8887 59.7125 96.8705 59.4924 102.999 59.4924C109.129 59.4924 115.112 59.7126 120.896 60.1311L121.38 60.1661L121.652 60.5673C124.907 65.3676 128.088 70.4381 131.153 75.7462C134.217 81.0542 137.018 86.3447 139.548 91.5634L139.759 91.9996L139.548 92.4358C137.018 97.6547 134.217 102.946 131.153 108.254C128.088 113.562 124.906 118.632 121.652 123.433L121.38 123.834L120.896 123.869C115.111 124.287 109.129 124.507 102.999 124.507C96.8706 124.507 90.8889 124.287 85.1047 123.869L84.6212 123.834L84.3492 123.433C81.0945 118.632 77.9129 113.562 74.8482 108.254C71.7835 102.945 68.9831 97.6547 66.4532 92.4358L66.2418 91.9996ZM55.9428 91.9996L55.7525 92.4156C51.9921 100.636 48.8684 108.696 46.4206 116.4L46.1247 117.331L45.187 117.057C41.8823 116.091 38.7566 115.045 35.8311 113.928C27.3345 110.684 20.7795 106.935 16.4302 103.009C12.0785 99.0801 10.3178 95.3521 10.3178 91.9999C10.3178 88.6477 12.0785 84.9197 16.4302 80.9913C20.7795 77.0651 27.3345 73.3158 35.8311 70.0717C38.7567 68.9547 41.8825 67.9089 45.1873 66.9428L46.125 66.6687L46.4209 67.5998C48.8687 75.3038 51.9922 83.3636 55.7525 91.5836L55.9428 91.9996ZM55.1734 119.613L55.5122 118.561C56.9348 114.145 58.5967 109.586 60.4927 104.927L61.2988 102.946L62.3021 104.834C63.7308 107.524 65.2235 110.219 66.7788 112.913C68.3341 115.606 69.9216 118.246 71.5362 120.828L72.6701 122.642L70.5517 122.349C65.5688 121.662 60.7896 120.821 56.2536 119.845L55.1734 119.613ZM52.6252 128.59L53.5795 128.8C61.4754 130.532 70.0173 131.856 79.0164 132.71L79.4718 132.753L79.7369 133.126C84.9754 140.492 90.3936 147.227 95.8415 153.199L96.4999 153.921L95.7936 154.596C93.3048 156.975 90.8364 159.159 88.4064 161.134C81.3486 166.87 74.8241 170.672 69.2493 172.476C63.6713 174.28 59.5624 173.941 56.6593 172.265C53.7563 170.589 51.408 167.2 50.1818 161.467C48.9563 155.737 48.9868 148.186 50.4256 139.205C50.921 136.114 51.5781 132.884 52.3937 129.539L52.6252 128.59ZM109.501 153.921L110.159 153.199C115.607 147.227 121.025 140.492 126.264 133.126L126.529 132.753L126.984 132.71C135.983 131.856 144.525 130.531 152.421 128.799L153.375 128.59L153.607 129.539C154.423 132.884 155.08 136.113 155.575 139.205C157.014 148.186 157.044 155.737 155.819 161.467C154.593 167.2 152.244 170.589 149.341 172.265C146.438 173.941 142.329 174.28 136.751 172.475C131.177 170.672 124.652 166.87 117.594 161.134C115.164 159.159 112.696 156.975 110.207 154.596L109.501 153.921ZM114.371 133.588L113.059 135.276C109.972 139.247 106.855 142.966 103.742 146.406L103 147.225L102.259 146.406C99.1457 142.966 96.0285 139.247 92.9418 135.276L91.6294 133.588L93.7666 133.663C96.8095 133.77 99.8893 133.825 102.999 133.825C106.11 133.825 109.191 133.77 112.234 133.663L114.371 133.588ZM133.331 122.641L134.465 120.828C136.079 118.246 137.667 115.606 139.222 112.913C140.777 110.219 142.27 107.524 143.699 104.834L144.702 102.946L145.508 104.927C147.404 109.586 149.066 114.144 150.489 118.561L150.827 119.612L149.747 119.845C145.211 120.821 140.432 121.661 135.449 122.349L133.331 122.641ZM150.058 91.9995L150.248 91.5835C154.008 83.3637 157.132 75.3041 159.58 67.6003L159.876 66.6692L160.813 66.9433C164.117 67.9092 167.243 68.9548 170.168 70.0717C178.664 73.3158 185.219 77.0651 189.569 80.9913C193.92 84.9197 195.681 88.6477 195.681 91.9999C195.681 95.3521 193.92 99.0801 189.569 103.009C185.219 106.935 178.664 110.684 170.168 113.928C167.243 115.045 164.118 116.091 160.814 117.056L159.876 117.331L159.58 116.399C157.132 108.695 154.009 100.636 150.248 92.4155L150.058 91.9995ZM153.375 55.41L152.421 55.2006C144.525 53.4685 135.984 52.1436 126.985 51.2901L126.529 51.2469L126.264 50.8741C121.026 43.5075 115.607 36.7725 110.159 30.8006L109.501 30.0788L110.207 29.4037C112.696 27.0251 115.164 24.8413 117.594 22.8664C124.652 17.1303 131.176 13.328 136.751 11.5246C142.329 9.72005 146.438 10.0592 149.341 11.7353C152.244 13.4114 154.592 16.8003 155.819 22.5332C157.044 28.2628 157.014 35.8143 155.575 44.7946C155.079 47.8865 154.422 51.1161 153.607 54.4608L153.375 55.41ZM150.827 64.3872L150.488 65.439C149.066 69.855 147.404 74.4138 145.508 79.0726L144.702 81.0533L143.699 79.1648C142.27 76.4756 140.777 73.781 139.222 71.0873C137.667 68.3936 136.08 65.7536 134.465 63.1717L133.331 61.3585L135.45 61.6509C140.432 62.3384 145.211 63.1786 149.747 64.1548L150.827 64.3872ZM95.1027 30.1266C89.6253 36.1307 84.1819 42.8975 78.9217 50.2944C69.8858 51.1514 61.3039 52.4821 53.3657 54.2235C53.3656 54.2235 53.3656 54.2235 53.3656 54.2235C52.5557 50.9026 51.9042 47.6994 51.4134 44.6364C49.9859 35.7266 49.9694 28.3089 51.1601 22.7423C52.3509 17.1748 54.5854 14.0876 57.1597 12.6013C59.734 11.115 63.5249 10.7235 68.9419 12.4759C74.358 14.2281 80.7737 17.9513 87.7761 23.6424C90.1833 25.5989 92.6316 27.7648 95.1027 30.1266ZM103 22.0194C105.711 19.4249 108.412 17.0329 111.087 14.8596C118.716 8.65844 126.364 4.04057 133.575 1.70771C140.786 -0.624904 148.186 -0.845476 154.5 2.79987C160.814 6.44522 164.323 12.9644 165.908 20.3751C167.493 27.7865 167.318 36.7186 165.763 46.4269C165.217 49.8294 164.497 53.365 163.605 57.0099C167.207 58.0601 170.629 59.2036 173.848 60.4327C183.034 63.9398 190.857 68.2539 196.482 73.3325C202.108 78.4106 205.999 84.7092 205.999 91.9999C205.999 99.2906 202.108 105.589 196.482 110.667C190.857 115.746 183.034 120.06 173.848 123.567C170.629 124.796 167.207 125.94 163.605 126.99C164.497 130.635 165.218 134.17 165.763 137.573C167.318 147.281 167.494 156.213 165.908 163.625C164.323 171.036 160.814 177.555 154.5 181.2C148.186 184.845 140.786 184.625 133.576 182.292C126.365 179.959 118.717 175.342 111.087 169.14C108.413 166.967 105.711 164.575 103.001 161.98C103 161.98 103 161.98 103 161.98C100.29 164.575 97.588 166.967 94.9138 169.14C87.2839 175.342 79.6362 179.959 72.4251 182.292C65.2147 184.625 57.8144 184.846 51.5004 181.2C45.1865 177.555 41.6773 171.036 40.0923 163.625C38.507 156.214 38.6824 147.282 40.2378 137.573C40.7829 134.171 41.5037 130.635 42.3954 126.99C38.7927 125.94 35.3702 124.796 32.1507 123.567C22.9654 120.06 15.1424 115.746 9.51649 110.667C3.89121 105.589 0 99.2906 0 91.9999C0 84.7092 3.89121 78.4106 9.51649 73.3325C15.1424 68.2539 22.9654 63.9398 32.1507 60.4327C35.3703 59.2034 38.7929 58.0597 42.3956 57.0094C41.5041 53.3647 40.7833 49.8292 40.2382 46.4268C38.6828 36.7185 38.5074 27.7865 40.0926 20.375C41.6777 12.9644 45.1869 6.44516 51.5008 2.79982C57.8148 -0.845531 65.2151 -0.624959 72.4255 1.70765C79.6366 4.04052 87.2843 8.65839 94.9142 14.8596C97.5883 17.0329 100.29 19.4249 103 22.0194C103 22.0194 103 22.0194 103 22.0194ZM94.535 48.3097C94.2668 48.6503 93.9988 48.9929 93.7311 49.3373C94.1643 49.3221 94.5982 49.3078 95.0329 49.2947C97.6634 49.2151 100.32 49.1746 102.999 49.1746C105.679 49.1746 108.337 49.2151 110.968 49.2948C111.403 49.3079 111.837 49.3222 112.27 49.3374C112.002 48.993 111.734 48.6504 111.466 48.3098C108.88 45.0249 106.275 41.9205 103.673 39.0117C103.449 38.7612 103.225 38.5121 103 38.2644C102.776 38.5121 102.552 38.7612 102.328 39.0117C99.7257 41.9204 97.1212 45.0248 94.535 48.3097ZM57.4477 64.9233C61.2678 64.124 65.2584 63.4207 69.3962 62.8235C69.8253 62.7616 70.2559 62.7008 70.6881 62.6412C70.4583 63.0087 70.229 63.3774 70.0003 63.7472C68.6159 65.9858 67.2522 68.2668 65.9124 70.5874C64.5727 72.9078 63.2793 75.229 62.0329 77.547C61.827 77.93 61.6223 78.3129 61.419 78.6957C61.2545 78.2916 61.0919 77.8882 60.931 77.4857C59.3793 73.6036 57.9931 69.7959 56.7752 66.088C56.6703 65.7686 56.5667 65.4499 56.4643 65.132C56.7908 65.0617 57.1186 64.9922 57.4477 64.9233ZM85.1769 122.871C81.9359 118.091 78.767 113.041 75.7143 107.754C72.6615 102.466 69.8723 97.1966 67.3531 91.9996C69.8722 86.8028 72.6612 81.5336 75.7139 76.2463C78.7666 70.9587 81.9356 65.9086 85.1766 61.1283C90.9367 60.7117 96.8943 60.4924 102.999 60.4924C109.105 60.4924 115.064 60.7117 120.824 61.1285C124.065 65.9087 127.234 70.9588 130.287 76.2462C133.34 81.5335 136.129 86.8028 138.648 91.9996C136.128 97.1966 133.339 102.466 130.286 107.754C127.234 113.041 124.065 118.091 120.824 122.871C115.063 123.288 109.105 123.507 102.999 123.507C96.8944 123.507 90.9368 123.288 85.1769 122.871ZM45.4679 67.9027C47.9288 75.6482 51.0674 83.7457 54.8431 91.9996C51.0672 100.254 47.9286 108.351 45.4675 116.097C42.1862 115.138 39.0861 114.101 36.1878 112.994C27.758 109.775 21.3258 106.081 17.1003 102.266C12.8742 98.4512 11.3178 94.9724 11.3178 91.9999C11.3178 89.0274 12.8742 85.5486 17.1003 81.7336C21.3258 77.9191 27.758 74.2246 36.1878 71.0059C39.0862 69.8993 42.1864 68.8619 45.4678 67.9026C45.4678 67.9027 45.4678 67.9027 45.4679 67.9027ZM56.464 118.868C56.7905 118.938 57.1183 119.008 57.4474 119.076C61.2677 119.876 65.2585 120.579 69.3965 121.176C69.8255 121.238 70.2562 121.299 70.6884 121.359C70.4585 120.991 70.2292 120.622 70.0005 120.253C68.6162 118.014 67.2526 115.733 65.9128 113.413C64.573 111.092 63.2794 108.77 62.0329 106.452C61.827 106.069 61.6223 105.686 61.419 105.304C61.2545 105.708 61.0918 106.111 60.9309 106.514C59.3791 110.396 57.9929 114.204 56.775 117.912C56.6701 118.231 56.5664 118.55 56.464 118.868ZM95.1027 153.873C89.6254 147.869 84.1821 141.102 78.922 133.705C69.8859 132.848 61.3038 131.518 53.3653 129.776C52.5554 133.097 51.9038 136.301 51.413 139.364C49.9855 148.273 49.969 155.691 51.1597 161.258C52.3505 166.825 54.585 169.912 57.1593 171.399C59.7336 172.885 63.5245 173.276 68.9415 171.524C74.3576 169.772 80.7733 166.049 87.7757 160.358C90.1831 158.401 92.6315 156.235 95.1027 153.873ZM112.269 134.662C111.836 134.678 111.402 134.692 110.968 134.705C108.337 134.785 105.679 134.825 102.999 134.825C100.32 134.825 97.6635 134.785 95.0331 134.705C94.5985 134.692 94.1645 134.678 93.7313 134.662C93.9991 135.007 94.267 135.349 94.5352 135.69C97.1213 138.975 99.7257 142.079 102.328 144.988C102.552 145.238 102.776 145.487 103 145.735C103.225 145.487 103.449 145.238 103.673 144.988C106.275 142.079 108.879 138.975 111.466 135.69C111.734 135.349 112.002 135.007 112.269 134.662ZM149.537 118.867C149.434 118.549 149.331 118.231 149.226 117.911C148.008 114.203 146.622 110.396 145.07 106.513C144.909 106.111 144.746 105.708 144.582 105.303C144.378 105.686 144.174 106.069 143.968 106.452C142.721 108.77 141.428 111.092 140.088 113.413C138.748 115.733 137.385 118.014 136 120.252C135.772 120.622 135.542 120.991 135.313 121.358C135.745 121.299 136.175 121.238 136.604 121.176C140.742 120.579 144.733 119.875 148.553 119.076C148.882 119.007 149.21 118.938 149.537 118.867ZM160.533 116.097C163.814 115.137 166.913 114.1 169.811 112.994C178.241 109.775 184.673 106.081 188.899 102.266C193.125 98.4512 194.681 94.9724 194.681 91.9999C194.681 89.0274 193.125 85.5486 188.899 81.7336C184.673 77.9191 178.241 74.2246 169.811 71.0059C166.913 69.8995 163.814 68.8622 160.533 67.9031C158.072 75.6485 154.933 83.7458 151.158 91.9995C154.933 100.253 158.072 108.351 160.533 116.097C160.533 116.097 160.533 116.097 160.533 116.097ZM110.898 30.1266C113.369 27.7648 115.817 25.5989 118.225 23.6424C125.227 17.9513 131.643 14.2282 137.059 12.476C142.476 10.7236 146.267 11.1151 148.841 12.6013C151.415 14.0876 153.65 17.1749 154.841 22.7423C156.031 28.3089 156.015 35.7266 154.587 44.6364C154.097 47.6995 153.445 50.9028 152.635 54.2238C144.697 52.4823 136.115 51.1516 127.079 50.2946C121.819 42.8977 116.376 36.1308 110.898 30.1267C110.898 30.1267 110.898 30.1266 110.898 30.1266ZM149.536 65.1324C149.21 65.0621 148.882 64.9925 148.553 64.9237C144.733 64.1244 140.742 63.4211 136.605 62.8238C136.176 62.7619 135.745 62.7011 135.313 62.6415C135.543 63.009 135.772 63.3777 136.001 63.7475C137.385 65.986 138.749 68.2668 140.088 70.5873C141.428 72.9077 142.721 75.229 143.968 77.5469C144.174 77.9299 144.378 78.3128 144.582 78.6956C144.746 78.2915 144.909 77.8882 145.07 77.4856C146.621 73.6037 148.008 69.7962 149.225 66.0884C149.33 65.769 149.434 65.4503 149.536 65.1324ZM102.998 109.141C112.465 109.141 120.139 101.466 120.139 91.9999C120.139 82.5333 112.465 74.8591 102.998 74.8591C93.5317 74.8591 85.8575 82.5333 85.8575 91.9999C85.8575 101.466 93.5317 109.141 102.998 109.141ZM110.898 153.873C113.369 156.235 115.818 158.401 118.225 160.358C125.227 166.049 131.643 169.772 137.059 171.524C142.476 173.276 146.267 172.885 148.841 171.399C151.416 169.912 153.65 166.825 154.841 161.258C156.032 155.691 156.015 148.273 154.588 139.364C154.097 136.3 153.445 133.097 152.635 129.776C144.697 131.517 136.115 132.848 127.079 133.705C121.819 141.102 116.375 147.869 110.898 153.873ZM102.998 110.141C113.017 110.141 121.139 102.019 121.139 91.9999C121.139 81.981 113.017 73.8591 102.998 73.8591C92.9794 73.8591 84.8575 81.981 84.8575 91.9999C84.8575 102.019 92.9794 110.141 102.998 110.141Z"/>
</mask>
<path fill-rule="evenodd" clip-rule="evenodd" d="M96.4999 30.0788L95.8414 30.8006C90.3935 36.7724 84.9752 43.5074 79.7366 50.874L79.4715 51.2468L79.0161 51.29C70.0173 52.1434 61.4756 53.4682 53.5799 55.2003L52.6255 55.4096L52.3941 54.4604C51.5784 51.1158 50.9214 47.8863 50.426 44.7946C48.9872 35.8143 48.9567 28.2627 50.1822 22.5331C51.4084 16.8002 53.7566 13.4114 56.6597 11.7353C59.5628 10.0592 63.6717 9.71999 69.2497 11.5245C74.8244 13.328 81.349 17.1302 88.4068 22.8664C90.8366 24.8412 93.3049 27.0251 95.7936 29.4037L96.4999 30.0788ZM103 23.4037L102.309 22.7418C99.6161 20.1643 96.9349 17.7904 94.2835 15.6356C86.7091 9.47949 79.1702 4.94067 72.1177 2.6591C65.0644 0.377306 57.9834 0.211784 52.0008 3.66584C46.0182 7.1199 42.6211 13.335 41.0705 20.5842C39.5201 27.8327 39.6815 36.6309 41.2256 46.2686C41.7661 49.6421 42.4813 53.151 43.367 56.7718L43.5944 57.7015L42.6755 57.9694C39.0965 59.0129 35.6996 60.148 32.5075 61.3669C23.3889 64.8485 15.6887 69.1079 10.1866 74.0748C4.68383 79.0423 1 85.0918 1 91.9999C1 98.908 4.68383 104.958 10.1866 109.925C15.6887 114.892 23.3889 119.151 32.5075 122.633C35.6995 123.852 39.0963 124.987 42.6753 126.03L43.5942 126.298L43.3667 127.228C42.481 130.849 41.7657 134.358 41.2252 137.731C39.6811 147.369 39.5198 156.167 41.0701 163.416C42.6207 170.665 46.0178 176.88 52.0004 180.334C57.983 183.788 65.064 183.623 72.1173 181.341C79.1699 179.059 86.7087 174.521 94.2831 168.364C96.9346 166.209 99.6159 163.835 102.309 161.258L103 160.596L103.692 161.258C106.385 163.835 109.066 166.209 111.718 168.364C119.292 174.52 126.831 179.059 133.883 181.341C140.937 183.623 148.018 183.788 154 180.334C159.983 176.88 163.38 170.665 164.931 163.416C166.481 156.167 166.32 147.369 164.776 137.731C164.235 134.358 163.52 130.848 162.634 127.227L162.407 126.298L163.325 126.03C166.904 124.986 170.3 123.852 173.491 122.633C182.61 119.151 190.31 114.892 195.812 109.925C201.315 104.958 204.999 98.908 204.999 91.9999C204.999 85.0918 201.315 79.0423 195.812 74.0748C190.31 69.1079 182.61 64.8485 173.491 61.3669C170.3 60.1482 166.903 59.0132 163.325 57.9699L162.406 57.702L162.634 56.7723C163.519 53.1513 164.235 49.6423 164.775 46.2687C166.319 36.6309 166.481 27.8327 164.93 20.5842C163.38 13.335 159.983 7.11995 154 3.6659C148.017 0.211838 140.936 0.377362 133.883 2.65916C126.83 4.94072 119.292 9.47954 111.717 15.6356C109.066 17.7905 106.385 20.1644 103.692 22.7418L103 23.4037ZM103 36.7742L103.742 37.5934C106.855 41.0335 109.972 44.7523 113.059 48.7238L114.372 50.4122L112.234 50.3368C109.191 50.2294 106.11 50.1746 102.999 50.1746C99.8892 50.1746 96.8094 50.2294 93.7664 50.3367L91.6292 50.4121L92.9415 48.7237C96.0284 44.7522 99.1457 41.0335 102.259 37.5934L103 36.7742ZM72.6699 61.3582L71.536 63.1714C69.9212 65.7534 68.3337 68.3935 66.7784 71.0874C65.2232 73.781 63.7307 76.4757 62.3021 79.1648L61.2988 81.0534L60.4927 79.0726C58.5968 74.4137 56.935 69.8548 55.5124 65.4386L55.1736 64.3868L56.2539 64.1544C60.7897 63.1783 65.5687 62.338 70.5514 61.6505L72.6699 61.3582ZM66.2418 91.9996L66.4532 91.5634C68.983 86.3448 71.7833 81.0542 74.8478 75.7463C77.9125 70.4381 81.0942 65.3675 84.349 60.5672L84.621 60.1659L85.1045 60.131C90.8887 59.7125 96.8705 59.4924 102.999 59.4924C109.129 59.4924 115.112 59.7126 120.896 60.1311L121.38 60.1661L121.652 60.5673C124.907 65.3676 128.088 70.4381 131.153 75.7462C134.217 81.0542 137.018 86.3447 139.548 91.5634L139.759 91.9996L139.548 92.4358C137.018 97.6547 134.217 102.946 131.153 108.254C128.088 113.562 124.906 118.632 121.652 123.433L121.38 123.834L120.896 123.869C115.111 124.287 109.129 124.507 102.999 124.507C96.8706 124.507 90.8889 124.287 85.1047 123.869L84.6212 123.834L84.3492 123.433C81.0945 118.632 77.9129 113.562 74.8482 108.254C71.7835 102.945 68.9831 97.6547 66.4532 92.4358L66.2418 91.9996ZM55.9428 91.9996L55.7525 92.4156C51.9921 100.636 48.8684 108.696 46.4206 116.4L46.1247 117.331L45.187 117.057C41.8823 116.091 38.7566 115.045 35.8311 113.928C27.3345 110.684 20.7795 106.935 16.4302 103.009C12.0785 99.0801 10.3178 95.3521 10.3178 91.9999C10.3178 88.6477 12.0785 84.9197 16.4302 80.9913C20.7795 77.0651 27.3345 73.3158 35.8311 70.0717C38.7567 68.9547 41.8825 67.9089 45.1873 66.9428L46.125 66.6687L46.4209 67.5998C48.8687 75.3038 51.9922 83.3636 55.7525 91.5836L55.9428 91.9996ZM55.1734 119.613L55.5122 118.561C56.9348 114.145 58.5967 109.586 60.4927 104.927L61.2988 102.946L62.3021 104.834C63.7308 107.524 65.2235 110.219 66.7788 112.913C68.3341 115.606 69.9216 118.246 71.5362 120.828L72.6701 122.642L70.5517 122.349C65.5688 121.662 60.7896 120.821 56.2536 119.845L55.1734 119.613ZM52.6252 128.59L53.5795 128.8C61.4754 130.532 70.0173 131.856 79.0164 132.71L79.4718 132.753L79.7369 133.126C84.9754 140.492 90.3936 147.227 95.8415 153.199L96.4999 153.921L95.7936 154.596C93.3048 156.975 90.8364 159.159 88.4064 161.134C81.3486 166.87 74.8241 170.672 69.2493 172.476C63.6713 174.28 59.5624 173.941 56.6593 172.265C53.7563 170.589 51.408 167.2 50.1818 161.467C48.9563 155.737 48.9868 148.186 50.4256 139.205C50.921 136.114 51.5781 132.884 52.3937 129.539L52.6252 128.59ZM109.501 153.921L110.159 153.199C115.607 147.227 121.025 140.492 126.264 133.126L126.529 132.753L126.984 132.71C135.983 131.856 144.525 130.531 152.421 128.799L153.375 128.59L153.607 129.539C154.423 132.884 155.08 136.113 155.575 139.205C157.014 148.186 157.044 155.737 155.819 161.467C154.593 167.2 152.244 170.589 149.341 172.265C146.438 173.941 142.329 174.28 136.751 172.475C131.177 170.672 124.652 166.87 117.594 161.134C115.164 159.159 112.696 156.975 110.207 154.596L109.501 153.921ZM114.371 133.588L113.059 135.276C109.972 139.247 106.855 142.966 103.742 146.406L103 147.225L102.259 146.406C99.1457 142.966 96.0285 139.247 92.9418 135.276L91.6294 133.588L93.7666 133.663C96.8095 133.77 99.8893 133.825 102.999 133.825C106.11 133.825 109.191 133.77 112.234 133.663L114.371 133.588ZM133.331 122.641L134.465 120.828C136.079 118.246 137.667 115.606 139.222 112.913C140.777 110.219 142.27 107.524 143.699 104.834L144.702 102.946L145.508 104.927C147.404 109.586 149.066 114.144 150.489 118.561L150.827 119.612L149.747 119.845C145.211 120.821 140.432 121.661 135.449 122.349L133.331 122.641ZM150.058 91.9995L150.248 91.5835C154.008 83.3637 157.132 75.3041 159.58 67.6003L159.876 66.6692L160.813 66.9433C164.117 67.9092 167.243 68.9548 170.168 70.0717C178.664 73.3158 185.219 77.0651 189.569 80.9913C193.92 84.9197 195.681 88.6477 195.681 91.9999C195.681 95.3521 193.92 99.0801 189.569 103.009C185.219 106.935 178.664 110.684 170.168 113.928C167.243 115.045 164.118 116.091 160.814 117.056L159.876 117.331L159.58 116.399C157.132 108.695 154.009 100.636 150.248 92.4155L150.058 91.9995ZM153.375 55.41L152.421 55.2006C144.525 53.4685 135.984 52.1436 126.985 51.2901L126.529 51.2469L126.264 50.8741C121.026 43.5075 115.607 36.7725 110.159 30.8006L109.501 30.0788L110.207 29.4037C112.696 27.0251 115.164 24.8413 117.594 22.8664C124.652 17.1303 131.176 13.328 136.751 11.5246C142.329 9.72005 146.438 10.0592 149.341 11.7353C152.244 13.4114 154.592 16.8003 155.819 22.5332C157.044 28.2628 157.014 35.8143 155.575 44.7946C155.079 47.8865 154.422 51.1161 153.607 54.4608L153.375 55.41ZM150.827 64.3872L150.488 65.439C149.066 69.855 147.404 74.4138 145.508 79.0726L144.702 81.0533L143.699 79.1648C142.27 76.4756 140.777 73.781 139.222 71.0873C137.667 68.3936 136.08 65.7536 134.465 63.1717L133.331 61.3585L135.45 61.6509C140.432 62.3384 145.211 63.1786 149.747 64.1548L150.827 64.3872ZM95.1027 30.1266C89.6253 36.1307 84.1819 42.8975 78.9217 50.2944C69.8858 51.1514 61.3039 52.4821 53.3657 54.2235C53.3656 54.2235 53.3656 54.2235 53.3656 54.2235C52.5557 50.9026 51.9042 47.6994 51.4134 44.6364C49.9859 35.7266 49.9694 28.3089 51.1601 22.7423C52.3509 17.1748 54.5854 14.0876 57.1597 12.6013C59.734 11.115 63.5249 10.7235 68.9419 12.4759C74.358 14.2281 80.7737 17.9513 87.7761 23.6424C90.1833 25.5989 92.6316 27.7648 95.1027 30.1266ZM103 22.0194C105.711 19.4249 108.412 17.0329 111.087 14.8596C118.716 8.65844 126.364 4.04057 133.575 1.70771C140.786 -0.624904 148.186 -0.845476 154.5 2.79987C160.814 6.44522 164.323 12.9644 165.908 20.3751C167.493 27.7865 167.318 36.7186 165.763 46.4269C165.217 49.8294 164.497 53.365 163.605 57.0099C167.207 58.0601 170.629 59.2036 173.848 60.4327C183.034 63.9398 190.857 68.2539 196.482 73.3325C202.108 78.4106 205.999 84.7092 205.999 91.9999C205.999 99.2906 202.108 105.589 196.482 110.667C190.857 115.746 183.034 120.06 173.848 123.567C170.629 124.796 167.207 125.94 163.605 126.99C164.497 130.635 165.218 134.17 165.763 137.573C167.318 147.281 167.494 156.213 165.908 163.625C164.323 171.036 160.814 177.555 154.5 181.2C148.186 184.845 140.786 184.625 133.576 182.292C126.365 179.959 118.717 175.342 111.087 169.14C108.413 166.967 105.711 164.575 103.001 161.98C103 161.98 103 161.98 103 161.98C100.29 164.575 97.588 166.967 94.9138 169.14C87.2839 175.342 79.6362 179.959 72.4251 182.292C65.2147 184.625 57.8144 184.846 51.5004 181.2C45.1865 177.555 41.6773 171.036 40.0923 163.625C38.507 156.214 38.6824 147.282 40.2378 137.573C40.7829 134.171 41.5037 130.635 42.3954 126.99C38.7927 125.94 35.3702 124.796 32.1507 123.567C22.9654 120.06 15.1424 115.746 9.51649 110.667C3.89121 105.589 0 99.2906 0 91.9999C0 84.7092 3.89121 78.4106 9.51649 73.3325C15.1424 68.2539 22.9654 63.9398 32.1507 60.4327C35.3703 59.2034 38.7929 58.0597 42.3956 57.0094C41.5041 53.3647 40.7833 49.8292 40.2382 46.4268C38.6828 36.7185 38.5074 27.7865 40.0926 20.375C41.6777 12.9644 45.1869 6.44516 51.5008 2.79982C57.8148 -0.845531 65.2151 -0.624959 72.4255 1.70765C79.6366 4.04052 87.2843 8.65839 94.9142 14.8596C97.5883 17.0329 100.29 19.4249 103 22.0194C103 22.0194 103 22.0194 103 22.0194ZM94.535 48.3097C94.2668 48.6503 93.9988 48.9929 93.7311 49.3373C94.1643 49.3221 94.5982 49.3078 95.0329 49.2947C97.6634 49.2151 100.32 49.1746 102.999 49.1746C105.679 49.1746 108.337 49.2151 110.968 49.2948C111.403 49.3079 111.837 49.3222 112.27 49.3374C112.002 48.993 111.734 48.6504 111.466 48.3098C108.88 45.0249 106.275 41.9205 103.673 39.0117C103.449 38.7612 103.225 38.5121 103 38.2644C102.776 38.5121 102.552 38.7612 102.328 39.0117C99.7257 41.9204 97.1212 45.0248 94.535 48.3097ZM57.4477 64.9233C61.2678 64.124 65.2584 63.4207 69.3962 62.8235C69.8253 62.7616 70.2559 62.7008 70.6881 62.6412C70.4583 63.0087 70.229 63.3774 70.0003 63.7472C68.6159 65.9858 67.2522 68.2668 65.9124 70.5874C64.5727 72.9078 63.2793 75.229 62.0329 77.547C61.827 77.93 61.6223 78.3129 61.419 78.6957C61.2545 78.2916 61.0919 77.8882 60.931 77.4857C59.3793 73.6036 57.9931 69.7959 56.7752 66.088C56.6703 65.7686 56.5667 65.4499 56.4643 65.132C56.7908 65.0617 57.1186 64.9922 57.4477 64.9233ZM85.1769 122.871C81.9359 118.091 78.767 113.041 75.7143 107.754C72.6615 102.466 69.8723 97.1966 67.3531 91.9996C69.8722 86.8028 72.6612 81.5336 75.7139 76.2463C78.7666 70.9587 81.9356 65.9086 85.1766 61.1283C90.9367 60.7117 96.8943 60.4924 102.999 60.4924C109.105 60.4924 115.064 60.7117 120.824 61.1285C124.065 65.9087 127.234 70.9588 130.287 76.2462C133.34 81.5335 136.129 86.8028 138.648 91.9996C136.128 97.1966 133.339 102.466 130.286 107.754C127.234 113.041 124.065 118.091 120.824 122.871C115.063 123.288 109.105 123.507 102.999 123.507C96.8944 123.507 90.9368 123.288 85.1769 122.871ZM45.4679 67.9027C47.9288 75.6482 51.0674 83.7457 54.8431 91.9996C51.0672 100.254 47.9286 108.351 45.4675 116.097C42.1862 115.138 39.0861 114.101 36.1878 112.994C27.758 109.775 21.3258 106.081 17.1003 102.266C12.8742 98.4512 11.3178 94.9724 11.3178 91.9999C11.3178 89.0274 12.8742 85.5486 17.1003 81.7336C21.3258 77.9191 27.758 74.2246 36.1878 71.0059C39.0862 69.8993 42.1864 68.8619 45.4678 67.9026C45.4678 67.9027 45.4678 67.9027 45.4679 67.9027ZM56.464 118.868C56.7905 118.938 57.1183 119.008 57.4474 119.076C61.2677 119.876 65.2585 120.579 69.3965 121.176C69.8255 121.238 70.2562 121.299 70.6884 121.359C70.4585 120.991 70.2292 120.622 70.0005 120.253C68.6162 118.014 67.2526 115.733 65.9128 113.413C64.573 111.092 63.2794 108.77 62.0329 106.452C61.827 106.069 61.6223 105.686 61.419 105.304C61.2545 105.708 61.0918 106.111 60.9309 106.514C59.3791 110.396 57.9929 114.204 56.775 117.912C56.6701 118.231 56.5664 118.55 56.464 118.868ZM95.1027 153.873C89.6254 147.869 84.1821 141.102 78.922 133.705C69.8859 132.848 61.3038 131.518 53.3653 129.776C52.5554 133.097 51.9038 136.301 51.413 139.364C49.9855 148.273 49.969 155.691 51.1597 161.258C52.3505 166.825 54.585 169.912 57.1593 171.399C59.7336 172.885 63.5245 173.276 68.9415 171.524C74.3576 169.772 80.7733 166.049 87.7757 160.358C90.1831 158.401 92.6315 156.235 95.1027 153.873ZM112.269 134.662C111.836 134.678 111.402 134.692 110.968 134.705C108.337 134.785 105.679 134.825 102.999 134.825C100.32 134.825 97.6635 134.785 95.0331 134.705C94.5985 134.692 94.1645 134.678 93.7313 134.662C93.9991 135.007 94.267 135.349 94.5352 135.69C97.1213 138.975 99.7257 142.079 102.328 144.988C102.552 145.238 102.776 145.487 103 145.735C103.225 145.487 103.449 145.238 103.673 144.988C106.275 142.079 108.879 138.975 111.466 135.69C111.734 135.349 112.002 135.007 112.269 134.662ZM149.537 118.867C149.434 118.549 149.331 118.231 149.226 117.911C148.008 114.203 146.622 110.396 145.07 106.513C144.909 106.111 144.746 105.708 144.582 105.303C144.378 105.686 144.174 106.069 143.968 106.452C142.721 108.77 141.428 111.092 140.088 113.413C138.748 115.733 137.385 118.014 136 120.252C135.772 120.622 135.542 120.991 135.313 121.358C135.745 121.299 136.175 121.238 136.604 121.176C140.742 120.579 144.733 119.875 148.553 119.076C148.882 119.007 149.21 118.938 149.537 118.867ZM160.533 116.097C163.814 115.137 166.913 114.1 169.811 112.994C178.241 109.775 184.673 106.081 188.899 102.266C193.125 98.4512 194.681 94.9724 194.681 91.9999C194.681 89.0274 193.125 85.5486 188.899 81.7336C184.673 77.9191 178.241 74.2246 169.811 71.0059C166.913 69.8995 163.814 68.8622 160.533 67.9031C158.072 75.6485 154.933 83.7458 151.158 91.9995C154.933 100.253 158.072 108.351 160.533 116.097C160.533 116.097 160.533 116.097 160.533 116.097ZM110.898 30.1266C113.369 27.7648 115.817 25.5989 118.225 23.6424C125.227 17.9513 131.643 14.2282 137.059 12.476C142.476 10.7236 146.267 11.1151 148.841 12.6013C151.415 14.0876 153.65 17.1749 154.841 22.7423C156.031 28.3089 156.015 35.7266 154.587 44.6364C154.097 47.6995 153.445 50.9028 152.635 54.2238C144.697 52.4823 136.115 51.1516 127.079 50.2946C121.819 42.8977 116.376 36.1308 110.898 30.1267C110.898 30.1267 110.898 30.1266 110.898 30.1266ZM149.536 65.1324C149.21 65.0621 148.882 64.9925 148.553 64.9237C144.733 64.1244 140.742 63.4211 136.605 62.8238C136.176 62.7619 135.745 62.7011 135.313 62.6415C135.543 63.009 135.772 63.3777 136.001 63.7475C137.385 65.986 138.749 68.2668 140.088 70.5873C141.428 72.9077 142.721 75.229 143.968 77.5469C144.174 77.9299 144.378 78.3128 144.582 78.6956C144.746 78.2915 144.909 77.8882 145.07 77.4856C146.621 73.6037 148.008 69.7962 149.225 66.0884C149.33 65.769 149.434 65.4503 149.536 65.1324ZM102.998 109.141C112.465 109.141 120.139 101.466 120.139 91.9999C120.139 82.5333 112.465 74.8591 102.998 74.8591C93.5317 74.8591 85.8575 82.5333 85.8575 91.9999C85.8575 101.466 93.5317 109.141 102.998 109.141ZM110.898 153.873C113.369 156.235 115.818 158.401 118.225 160.358C125.227 166.049 131.643 169.772 137.059 171.524C142.476 173.276 146.267 172.885 148.841 171.399C151.416 169.912 153.65 166.825 154.841 161.258C156.032 155.691 156.015 148.273 154.588 139.364C154.097 136.3 153.445 133.097 152.635 129.776C144.697 131.517 136.115 132.848 127.079 133.705C121.819 141.102 116.375 147.869 110.898 153.873ZM102.998 110.141C113.017 110.141 121.139 102.019 121.139 91.9999C121.139 81.981 113.017 73.8591 102.998 73.8591C92.9794 73.8591 84.8575 81.981 84.8575 91.9999C84.8575 102.019 92.9794 110.141 102.998 110.141Z" fill="url(#paint1_linear_2804_315185)" stroke="#00D9FB" stroke-width="2" mask="url(#path-3-inside-1_2804_315185)"/>
<defs>
<linearGradient id="paint0_linear_2804_315185" x1="0" y1="184" x2="205.485" y2="-0.572599" gradientUnits="userSpaceOnUse">
<stop stop-color="#00FFF0"/>
<stop offset="0.507812" stop-color="#00E5F7"/>
<stop offset="1" stop-color="#00C8FF"/>
</linearGradient>
<linearGradient id="paint1_linear_2804_315185" x1="209.936" y1="-23.4894" x2="3.91491" y2="184" gradientUnits="userSpaceOnUse">
<stop stop-color="white" stop-opacity="0.1"/>
<stop offset="1" stop-color="white" stop-opacity="0.35"/>
</linearGradient>
</defs>
</svg>
